<?xml version="1.0" standalone="no"?>
<svg xmlns="http://www.w3.org/2000/svg" viewBox="0 0 88 74" width="88" height="74"><g fill="#A7BB7B" color="#A7BB7B" transform="translate(21.692 0) scale(0.8461539) "><svg width="52.0" height="52.0" x="0.0" y="0.0" viewBox="0 0 52 52"><path fill="currentColor" fill-rule="evenodd" d="M41.425 44.023v-3.275l3.389-3.677v3.371a24.18 24.18 0 0 1-3.389 3.581zM6.719 40.442v-3.359l3.389 3.677v3.263a24.175 24.175 0 0 1-3.389-3.581zm5.141.481l3.331-3.766v3.859l-3.33 3.82V40.923zM6.72 30.136l3.388 3.493v4.544l-3.389-3.676v-4.361zm3.388.975l-3.389-3.493v-4.13l3.389 3.68v3.943zm1.752 2.523l3.331-3.433v4.31l-3.33 3.766v-4.643zm3.331-10.146v4.196l-3.33 3.433V27.11l3.33-3.622zm6.369 4.514l3.33 3.614v4.141l-3.33-3.797v-3.958zm3.33-6.036l-3.33-3.433v-4.101l3.33 3.622v3.912zm5.083-3.383l-3.33 3.434v-4.021l3.33-3.623v4.21zm-3.33 13.234l.002.003 3.328-3.764V31.9l-3.33 3.798v-3.882zm-1.753-2.788l-3.33-3.613V21.05l3.33 3.433v4.545zm1.752-4.495l3.33-3.433v4.308l-3.33 3.768v-4.643zm14.783 9.086l3.389-3.493v4.358l-3.389 3.677V33.62zm-1.753-2.554l-3.33-3.433v-4.145l3.33 3.622v3.956zm0 7.234l-3.33-3.768v-4.381l3.33 3.432V38.3zm5.142-14.812v4.121l-3.389 3.493V27.17l3.389-3.681zm-5.142 21.348l-3.33-3.82v-3.838l3.329 3.767.001-.001v3.892zM25.766 1.753c13.263 0 24.014 10.809 24.014 24.072a23.9 23.9 0 0 1-3.213 11.995V19.047l-5.987 6.444-5.991-6.502v22.728l3.933 4.45a23.876 23.876 0 0 1-11.88 3.65V38.384l5.083-5.783V9.932l-5.96 6.47-5.958-6.47v22.67l5.083 5.85v11.364a23.878 23.878 0 0 1-11.88-3.649l3.934-4.45V18.989l-5.99 6.502-5.987-6.444V37.82a23.895 23.895 0 0 1-3.214-11.995c0-13.263 10.75-24.072 24.013-24.072zm0-1.753C11.568 0 0 11.627 0 25.825 0 40.023 11.568 51.59 25.766 51.59c14.198 0 25.767-11.627 25.767-25.825C51.533 11.57 39.964 0 25.766 0z"></path></svg></g><path fill="#586015" fill-rule="nonzero" d="M9.12 1.58L14.59 17.23L11.11 17.23L10.15 14.28L4.42 14.28L3.48 17.23L0 17.23L5.47 1.58Q5.83 0.77 6.28 0.46Q6.72 0.14 7.37 0.14Q8.02 0.14 8.41 0.43Q8.81 0.72 9.12 1.58L9.12 1.58ZM5.26 11.47L9.38 11.47L7.37 4.70L5.26 11.47ZM20.14 3.62L23.42 3.62L26.54 3.43L26.54 16.61Q26.54 18.89 25.26 20.10Q23.98 21.31 21.46 21.31L21.46 21.31Q19.51 21.31 18.05 20.54L18.05 20.54Q17.28 20.16 16.82 19.39Q16.37 18.62 16.37 17.57L16.37 17.57L19.27 17.42Q19.27 18.10 19.75 18.38Q20.23 18.67 21.40 18.67Q22.56 18.67 22.98 18.10Q23.40 17.52 23.40 16.44L23.40 16.44L23.52 14.38L20.16 16.18Q17.40 16.18 16.44 14.30L16.44 14.30Q15.58 12.65 15.58 10.25L15.58 10.25Q15.58 7.39 16.01 6.22L16.01 6.22Q16.46 4.92 17.30 4.34L17.30 4.34Q18.38 3.62 20.14 3.62L20.14 3.62ZM21.05 12.89L23.42 11.66L23.42 6.43L21.05 6.43Q19.70 6.43 19.20 7.34Q18.70 8.26 18.70 9.89Q18.70 11.52 19.21 12.20Q19.73 12.89 21.05 12.89L21.05 12.89ZM37.30 3.58L37.30 3.58L36.43 6.65Q36.07 6.50 35.62 6.50L35.62 6.50Q34.42 6.50 32.66 7.54L32.66 7.54L32.66 17.23L29.54 17.23L29.54 3.53L31.87 3.53L32.59 4.73L35.90 3.36Q36.14 3.34 36.55 3.34Q36.96 3.34 37.30 3.58ZM48.82 3.43L48.82 17.23L46.73 17.23L45.77 15.58L42.43 17.38Q39.65 17.38 38.69 15.36L38.69 15.36Q38.21 14.38 38.03 13.24Q37.85 12.10 37.85 10.86Q37.85 9.62 37.87 9.04Q37.90 8.45 37.99 7.67Q38.09 6.89 38.27 6.36Q38.45 5.83 38.78 5.27Q39.12 4.70 39.60 4.37L39.60 4.37Q40.68 3.62 42.41 3.62L42.41 3.62L45.70 3.62L48.82 3.43ZM43.32 14.09L45.70 12.86L45.70 6.43L43.32 6.43Q42.00 6.43 41.48 7.44Q40.97 8.45 40.97 10.45Q40.97 12.46 41.46 13.27Q41.95 14.09 43.32 14.09L43.32 14.09ZM59.47 3.58L59.47 3.58L58.61 6.65Q58.25 6.50 57.79 6.50L57.79 6.50Q56.59 6.50 54.84 7.54L54.84 7.54L54.84 17.23L51.72 17.23L51.72 3.53L54.05 3.53L54.77 4.73L58.08 3.36Q58.32 3.34 58.73 3.34Q59.14 3.34 59.47 3.58ZM60.74 9.19L60.74 9.19L60.74 7.08Q60.74 3.74 62.50 1.87Q64.25 0 67.34 0Q70.44 0 72.31 1.87L72.31 1.87Q73.63 3.19 73.63 5.83L73.63 5.83L70.51 5.83Q70.51 2.98 67.46 2.98L67.46 2.98Q66.55 2.98 65.92 3.32Q65.28 3.67 64.97 4.13Q64.66 4.58 64.49 5.47Q64.32 6.36 64.30 6.96Q64.27 7.56 64.27 8.57Q64.27 9.58 64.28 9.92Q64.30 10.27 64.36 11.05Q64.42 11.83 64.55 12.17Q64.68 12.50 64.93 13.03Q65.18 13.56 65.57 13.78L65.57 13.78Q66.55 14.40 67.80 14.40L67.80 14.40Q69.89 14.40 70.75 12.62L70.75 12.62L70.75 11.47L68.69 11.47L68.69 8.69L73.61 8.69L73.61 13.85Q72.86 15.60 71.26 16.49Q69.65 17.38 67.61 17.38L67.61 17.38Q63.98 17.38 62.36 15.35Q60.74 13.32 60.74 9.19ZM84.26 11.04L84.26 11.04L84.26 9.79Q84.26 8.02 83.75 7.08Q83.23 6.14 81.60 6.14L81.60 6.14Q78.96 6.14 78.96 9.70L78.96 9.70L78.96 10.94Q78.96 14.76 81.60 14.76L81.60 14.76Q83.30 14.76 83.83 13.49L83.83 13.49Q84.26 12.48 84.26 11.04ZM87.38 10.32L87.38 10.32Q87.38 14.76 85.70 16.27L85.70 16.27Q84.29 17.57 81.60 17.57L81.60 17.57Q78.17 17.57 76.97 15.55L76.97 15.55Q75.84 13.70 75.84 10.32L75.84 10.32Q75.84 7.15 76.97 5.35L76.97 5.35Q78.22 3.34 81.52 3.34Q84.82 3.34 86.10 5.10Q87.38 6.86 87.38 10.32Z" transform="translate(0, 52)"></path></svg>